# 3ds Max Wavefront OBJ Exporter v0.97b - (c)2007 guruware
# File Created: 25.11.2017 14:20:07

#
# object cactus2
#

v  -0.3240 -0.1839 -0.3240
v  -0.0000 -0.1839 -0.4582
v  0.3240 -0.1839 -0.3240
v  0.4582 -0.1839 -0.0000
v  0.3240 -0.1839 0.3240
v  0.0000 -0.1839 0.4582
v  -0.3240 -0.1839 0.3240
v  -0.4582 -0.1828 0.0000
v  -0.3240 3.0746 0.3240
v  -0.4582 3.0746 0.0000
v  0.0000 3.0746 0.4582
v  0.3240 3.0746 0.3240
v  0.4582 3.0746 -0.0000
v  0.3240 3.0746 -0.3240
v  -0.0000 3.0746 -0.4582
v  -0.3240 3.0746 -0.3240
v  -0.2074 3.3957 0.2074
v  -0.2933 3.3957 0.0000
v  0.0000 3.3957 0.2933
v  0.2074 3.3957 0.2074
v  0.2933 3.3957 -0.0000
v  0.2074 3.3957 -0.2074
v  -0.0000 3.3957 -0.2933
v  -0.2074 3.3957 -0.2074
v  -0.0000 3.4878 -0.0000
v  -0.2025 0.7485 -0.3593
v  -0.0000 0.6696 -0.3880
v  0.2025 0.7485 -0.3593
v  0.2864 0.9388 -0.2900
v  0.2025 1.1291 -0.2208
v  -0.0000 1.2079 -0.1921
v  -0.2025 1.1291 -0.2208
v  -0.2864 0.9388 -0.2900
v  -0.2864 1.4823 -0.9559
v  -0.2025 1.4823 -0.7534
v  -0.2025 2.8395 -0.7534
v  -0.2864 2.8395 -0.9559
v  -0.0000 1.4823 -0.6695
v  -0.0000 2.8395 -0.6695
v  0.2025 1.4823 -0.7534
v  0.2025 2.8395 -0.7534
v  0.2864 1.4823 -0.9559
v  0.2864 2.8395 -0.9559
v  0.2025 1.4823 -1.1584
v  0.2025 2.8395 -1.1584
v  -0.0000 1.4823 -1.2423
v  -0.0000 2.8395 -1.2423
v  -0.2025 1.4823 -1.1584
v  -0.2025 2.8395 -1.1584
v  -0.1296 3.0401 -0.8263
v  -0.1833 3.0401 -0.9559
v  -0.0000 3.0401 -0.7726
v  0.1296 3.0401 -0.8263
v  0.1833 3.0401 -0.9559
v  0.1296 3.0401 -1.0855
v  -0.0000 3.0401 -1.1392
v  -0.1296 3.0401 -1.0855
v  -0.0000 3.0977 -0.9559
v  -0.0000 1.0402 -1.0899
v  -0.2025 1.0756 -1.0139
v  0.2025 1.0756 -1.0139
v  0.2864 1.1612 -0.8303
v  0.2025 1.2468 -0.6468
v  -0.0000 1.2823 -0.5708
v  -0.2025 1.2468 -0.6468
v  -0.2864 1.1612 -0.8303
v  -0.0000 0.7210 -0.7159
v  -0.2025 0.7998 -0.6872
v  0.2025 0.7998 -0.6872
v  0.2864 0.9901 -0.6179
v  0.2025 1.1805 -0.5487
v  -0.0000 1.2593 -0.5200
v  -0.2025 1.1805 -0.5487
v  -0.2864 0.9901 -0.6179
v  0.2025 1.2613 0.3916
v  0.0000 1.1824 0.4203
v  -0.2025 1.2613 0.3916
v  -0.2864 1.4516 0.3223
v  -0.2025 1.6419 0.2530
v  -0.0000 1.7207 0.2243
v  0.2025 1.6419 0.2530
v  0.2864 1.4516 0.3223
v  0.2864 1.9951 0.9882
v  0.2025 1.9951 0.7857
v  0.2025 3.1338 0.7857
v  0.2864 3.1338 0.9882
v  0.0000 1.9951 0.7018
v  0.0000 3.1338 0.7018
v  -0.2025 1.9951 0.7857
v  -0.2025 3.1338 0.7857
v  -0.2864 1.9951 0.9882
v  -0.2864 3.1338 0.9882
v  -0.2025 1.9951 1.1907
v  -0.2025 3.1338 1.1907
v  0.0000 1.9951 1.2746
v  0.0000 3.1338 1.2746
v  0.2025 1.9951 1.1907
v  0.2025 3.1338 1.1907
v  0.1296 3.3345 0.8585
v  0.1833 3.3345 0.9882
v  0.0000 3.3345 0.8048
v  -0.1296 3.3345 0.8585
v  -0.1833 3.3345 0.9882
v  -0.1296 3.3345 1.1178
v  0.0000 3.3345 1.1715
v  0.1296 3.3345 1.1178
v  0.0000 3.3921 0.9882
v  0.0000 1.5530 1.1222
v  0.2025 1.5884 1.0462
v  -0.2025 1.5884 1.0462
v  -0.2864 1.6740 0.8626
v  -0.2025 1.7596 0.6791
v  0.0000 1.7951 0.6031
v  0.2025 1.7596 0.6791
v  0.2864 1.6740 0.8626
v  0.0000 1.2338 0.7482
v  0.2025 1.3126 0.7195
v  -0.2025 1.3126 0.7195
v  -0.2864 1.5030 0.6502
v  -0.2025 1.6933 0.5809
v  0.0000 1.7721 0.5523
v  0.2025 1.6933 0.5809
v  0.2864 1.5030 0.6502
# 123 vertices

vn -0.5486 -0.6319 -0.5475
vn -0.0000 -0.6303 -0.7764
vn 0.5490 -0.6303 -0.5490
vn 0.7764 -0.6303 -0.0000
vn 0.5490 -0.6303 0.5490
vn 0.0000 -0.6303 0.7764
vn -0.5486 -0.6319 0.5475
vn -0.7790 -0.6270 0.0000
vn -0.6893 0.2229 0.6893
vn -0.9748 0.2229 0.0000
vn 0.0000 0.2229 0.9748
vn 0.6893 0.2229 0.6893
vn 0.9748 0.2229 -0.0000
vn 0.6893 0.2229 -0.6893
vn -0.0000 0.2229 -0.9748
vn -0.6893 0.2229 -0.6893
vn -0.4907 0.7201 0.4907
vn -0.6939 0.7201 0.0000
vn 0.0000 0.7201 0.6939
vn 0.4907 0.7201 0.4907
vn 0.6939 0.7201 -0.0000
vn 0.4907 0.7201 -0.4907
vn -0.0000 0.7201 -0.6939
vn -0.4907 0.7201 -0.4907
vn -0.0000 1.0000 -0.0000
vn -0.5367 -0.7026 0.4673
vn 0.0000 -0.9097 0.4154
vn 0.5367 -0.7026 0.4673
vn 0.7785 -0.1798 0.6013
vn 0.5594 0.3630 0.7452
vn 0.0000 0.5906 0.8070
vn -0.5594 0.3630 0.7452
vn -0.7785 -0.1798 0.6013
vn -0.9988 -0.0176 -0.0449
vn -0.7274 0.1475 0.6702
vn 0.0000 0.2405 0.9706
vn 0.7274 0.1475 0.6702
vn 0.9988 -0.0176 -0.0449
vn 0.6834 -0.1251 -0.7192
vn -0.0000 -0.1590 -0.9873
vn -0.6834 -0.1251 -0.7192
vn 0.0000 1.0000 0.0000
vn -0.0000 -0.5553 -0.8317
vn -0.6731 -0.4231 -0.6066
vn 0.6731 -0.4231 -0.6066
vn 0.9977 -0.0503 -0.0455
vn 0.7314 0.4445 0.5172
vn 0.0000 0.7416 0.6708
vn -0.7314 0.4445 0.5172
vn -0.9977 -0.0503 -0.0455
vn -0.0000 -0.9106 -0.4132
vn -0.6748 -0.6708 -0.3076
vn 0.6748 -0.6708 -0.3076
vn 0.9980 -0.0565 -0.0301
vn 0.7346 0.6312 0.2488
vn 0.0000 0.9588 0.2841
vn -0.7346 0.6312 0.2488
vn -0.9980 -0.0565 -0.0301
vn 0.5367 -0.7026 -0.4673
vn -0.0000 -0.9097 -0.4154
vn -0.5367 -0.7026 -0.4673
vn -0.7785 -0.1798 -0.6013
vn -0.5594 0.3630 -0.7452
vn -0.0000 0.5906 -0.8070
vn 0.5594 0.3630 -0.7452
vn 0.7785 -0.1798 -0.6013
vn 0.9988 -0.0176 0.0449
vn 0.7274 0.1475 -0.6702
vn -0.0000 0.2405 -0.9706
vn -0.7274 0.1475 -0.6702
vn -0.9988 -0.0176 0.0449
vn -0.6834 -0.1251 0.7192
vn -0.0000 -0.1590 0.9873
vn 0.6834 -0.1251 0.7192
vn -0.6939 0.7201 -0.0000
vn 0.0000 1.0000 -0.0000
vn 0.0000 -0.5553 0.8317
vn 0.6731 -0.4231 0.6066
vn -0.6731 -0.4231 0.6066
vn -0.9977 -0.0503 0.0455
vn -0.7314 0.4445 -0.5172
vn -0.0000 0.7416 -0.6708
vn 0.7314 0.4445 -0.5172
vn 0.9977 -0.0503 0.0455
vn 0.0000 -0.9106 0.4132
vn 0.6748 -0.6708 0.3076
vn -0.6748 -0.6708 0.3076
vn -0.9980 -0.0565 0.0301
vn -0.7346 0.6312 -0.2488
vn -0.0000 0.9588 -0.2841
vn 0.7346 0.6312 -0.2488
vn 0.9980 -0.0565 0.0301
# 92 vertex normals

vt 0.6250 0.0000 1.0000
vt 0.5000 0.0000 1.0000
vt 0.3750 0.0000 1.0000
vt 0.2500 0.0000 1.0000
vt 0.1250 0.0000 1.0000
vt 0.0000 0.0000 1.0000
vt -0.1250 0.0000 1.0000
vt 0.1161 0.0000 0.4142
vt 0.7500 0.0000 1.0000
vt 0.8750 0.0000 1.0000
vt 0.8750 1.0000 1.0000
vt 0.7500 1.0000 1.0000
vt 0.0000 1.0000 1.0000
vt -0.1250 1.0000 1.0000
vt 0.1250 1.0000 1.0000
vt 0.2500 1.0000 1.0000
vt 0.3750 1.0000 1.0000
vt 0.5000 1.0000 1.0000
vt 0.6250 1.0000 1.0000
vt 0.7803 1.0000 0.4142
vt 0.5214 1.0000 -0.4142
vt 0.2500 1.0000 -1.0000
vt 0.1250 1.0000 -1.0000
vt 0.2197 1.0000 -0.4142
vt 0.5183 1.0000 0.0732
# 25 texture coords

o cactus2
g cactus2
f 1/1/1 2/2/2 3/3/3 4/4/4 5/5/5 6/6/6 7/7/7 8/8/8 
f 8/9/8 7/10/7 9/11/9 10/12/10 
f 7/7/7 6/6/6 11/13/11 9/14/9 
f 6/6/6 5/5/5 12/15/12 11/13/11 
f 5/5/5 4/4/4 13/16/13 12/15/12 
f 4/4/4 3/3/3 14/17/14 13/16/13 
f 3/3/3 2/2/2 15/18/15 14/17/14 
f 2/2/2 1/1/1 16/19/16 15/18/15 
f 1/1/1 8/9/8 10/12/10 16/19/16 
f 10/12/10 9/11/9 17/11/17 18/12/18 
f 9/11/9 11/20/11 19/20/19 17/11/17 
f 11/20/11 12/21/12 20/21/20 19/20/19 
f 12/21/12 13/22/13 21/22/21 20/21/20 
f 13/22/13 14/23/14 22/23/22 21/22/21 
f 14/23/14 15/24/15 23/24/23 22/23/22 
f 15/24/15 16/19/16 24/19/24 23/24/23 
f 16/19/16 10/12/10 18/12/18 24/19/24 
f 18/12/18 17/11/17 25/25/25 
f 17/11/17 19/20/19 25/25/25 
f 19/20/19 20/21/20 25/25/25 
f 20/21/20 21/22/21 25/25/25 
f 21/22/21 22/23/22 25/25/25 
f 22/23/22 23/24/23 25/25/25 
f 23/24/23 24/19/24 25/25/25 
f 24/19/24 18/12/18 25/25/25 
f 26/1/26 27/2/27 28/3/28 29/4/29 30/5/30 31/6/31 32/7/32 33/8/33 
f 34/9/34 35/10/35 36/11/9 37/12/10 
f 35/7/35 38/6/36 39/13/11 36/14/9 
f 38/6/36 40/5/37 41/15/12 39/13/11 
f 40/5/37 42/4/38 43/16/13 41/15/12 
f 42/4/38 44/3/39 45/17/14 43/16/13 
f 44/3/39 46/2/40 47/18/15 45/17/14 
f 46/2/40 48/1/41 49/19/16 47/18/15 
f 48/1/41 34/9/34 37/12/10 49/19/16 
f 37/12/10 36/11/9 50/11/17 51/12/18 
f 36/11/9 39/20/11 52/20/19 50/11/17 
f 39/20/11 41/21/12 53/21/20 52/20/19 
f 41/21/12 43/22/13 54/22/21 53/21/20 
f 43/22/13 45/23/14 55/23/22 54/22/21 
f 45/23/14 47/24/15 56/24/23 55/23/22 
f 47/24/15 49/19/16 57/19/24 56/24/23 
f 49/19/16 37/12/10 51/12/18 57/19/24 
f 51/12/18 50/11/17 58/25/42 
f 50/11/17 52/20/19 58/25/42 
f 52/20/19 53/21/20 58/25/42 
f 53/21/20 54/22/21 58/25/42 
f 54/22/21 55/23/22 58/25/42 
f 55/23/22 56/24/23 58/25/42 
f 56/24/23 57/19/24 58/25/42 
f 57/19/24 51/12/18 58/25/42 
f 48/1/41 46/2/40 59/2/43 60/1/44 
f 46/2/40 44/3/39 61/3/45 59/2/43 
f 44/3/39 42/4/38 62/4/46 61/3/45 
f 42/4/38 40/5/37 63/5/47 62/4/46 
f 40/5/37 38/6/36 64/6/48 63/5/47 
f 38/6/36 35/7/35 65/7/49 64/6/48 
f 35/7/35 34/8/34 66/8/50 65/7/49 
f 34/8/34 48/1/41 60/1/44 66/8/50 
f 60/1/44 59/2/43 67/2/51 68/1/52 
f 59/2/43 61/3/45 69/3/53 67/2/51 
f 61/3/45 62/4/46 70/4/54 69/3/53 
f 62/4/46 63/5/47 71/5/55 70/4/54 
f 63/5/47 64/6/48 72/6/56 71/5/55 
f 64/6/48 65/7/49 73/7/57 72/6/56 
f 65/7/49 66/8/50 74/8/58 73/7/57 
f 66/8/50 60/1/44 68/1/52 74/8/58 
f 68/1/52 67/2/51 27/2/27 26/1/26 
f 67/2/51 69/3/53 28/3/28 27/2/27 
f 69/3/53 70/4/54 29/4/29 28/3/28 
f 70/4/54 71/5/55 30/5/30 29/4/29 
f 71/5/55 72/6/56 31/6/31 30/5/30 
f 72/6/56 73/7/57 32/7/32 31/6/31 
f 73/7/57 74/8/58 33/8/33 32/7/32 
f 74/8/58 68/1/52 26/1/26 33/8/33 
f 75/1/59 76/2/60 77/3/61 78/4/62 79/5/63 80/6/64 81/7/65 82/8/66 
f 83/9/67 84/10/68 85/11/14 86/12/13 
f 84/7/68 87/6/69 88/13/15 85/14/14 
f 87/6/69 89/5/70 90/15/16 88/13/15 
f 89/5/70 91/4/71 92/16/10 90/15/16 
f 91/4/71 93/3/72 94/17/9 92/16/10 
f 93/3/72 95/2/73 96/18/11 94/17/9 
f 95/2/73 97/1/74 98/19/12 96/18/11 
f 97/1/74 83/9/67 86/12/13 98/19/12 
f 86/12/13 85/11/14 99/11/22 100/12/21 
f 85/11/14 88/20/15 101/20/23 99/11/22 
f 88/20/15 90/21/16 102/21/24 101/20/23 
f 90/21/16 92/22/10 103/22/75 102/21/24 
f 92/22/10 94/23/9 104/23/17 103/22/75 
f 94/23/9 96/24/11 105/24/19 104/23/17 
f 96/24/11 98/19/12 106/19/20 105/24/19 
f 98/19/12 86/12/13 100/12/21 106/19/20 
f 100/12/21 99/11/22 107/25/76 
f 99/11/22 101/20/23 107/25/76 
f 101/20/23 102/21/24 107/25/76 
f 102/21/24 103/22/75 107/25/76 
f 103/22/75 104/23/17 107/25/76 
f 104/23/17 105/24/19 107/25/76 
f 105/24/19 106/19/20 107/25/76 
f 106/19/20 100/12/21 107/25/76 
f 97/1/74 95/2/73 108/2/77 109/1/78 
f 95/2/73 93/3/72 110/3/79 108/2/77 
f 93/3/72 91/4/71 111/4/80 110/3/79 
f 91/4/71 89/5/70 112/5/81 111/4/80 
f 89/5/70 87/6/69 113/6/82 112/5/81 
f 87/6/69 84/7/68 114/7/83 113/6/82 
f 84/7/68 83/8/67 115/8/84 114/7/83 
f 83/8/67 97/1/74 109/1/78 115/8/84 
f 109/1/78 108/2/77 116/2/85 117/1/86 
f 108/2/77 110/3/79 118/3/87 116/2/85 
f 110/3/79 111/4/80 119/4/88 118/3/87 
f 111/4/80 112/5/81 120/5/89 119/4/88 
f 112/5/81 113/6/82 121/6/90 120/5/89 
f 113/6/82 114/7/83 122/7/91 121/6/90 
f 114/7/83 115/8/84 123/8/92 122/7/91 
f 115/8/84 109/1/78 117/1/86 123/8/92 
f 117/1/86 116/2/85 76/2/60 75/1/59 
f 116/2/85 118/3/87 77/3/61 76/2/60 
f 118/3/87 119/4/88 78/4/62 77/3/61 
f 119/4/88 120/5/89 79/5/63 78/4/62 
f 120/5/89 121/6/90 80/6/64 79/5/63 
f 121/6/90 122/7/91 81/7/65 80/6/64 
f 122/7/91 123/8/92 82/8/66 81/7/65 
f 123/8/92 117/1/86 75/1/59 82/8/66 
# 99 polygons - 24 triangles

