# 3ds Max Wavefront OBJ Exporter v0.97b - (c)2007 guruware
# File Created: 25.11.2017 14:19:41

#
# object Rock4
#

v  -10.0376 7.7931 4.1310
v  -7.4810 7.7931 5.1830
v  -5.7562 7.7931 2.2971
v  -10.8051 7.7931 2.0060
v  -5.4375 7.7931 5.1581
v  -4.1460 7.7931 3.1230
v  -3.5427 7.7931 3.9323
v  -2.3379 7.7931 2.7431
v  -7.2196 7.7931 -2.0232
v  -8.8813 7.7931 -0.6647
v  -0.2994 7.7931 -0.8876
v  -1.3953 7.7931 1.2422
v  -10.4509 7.7931 -2.8123
v  -4.6842 7.7931 -4.5510
v  -7.5653 7.7931 -3.9990
v  -2.6805 7.7931 -2.9951
v  -12.1292 0.0000 2.3275
v  -10.8430 0.0000 4.7197
v  -10.6200 3.0107 4.5158
v  -11.7272 3.0107 2.2173
v  -7.5349 0.0000 6.3538
v  -7.5983 3.0107 5.9165
v  -4.9487 0.0000 6.4706
v  -4.9487 2.7079 6.4706
v  -2.4022 0.0000 4.9692
v  -2.4022 2.7079 4.9692
v  -0.9449 0.0000 3.4682
v  -0.9449 2.7079 3.4682
v  -0.1108 0.0000 1.5961
v  -0.1108 2.7079 1.5961
v  0.3888 0.0000 -1.2299
v  0.3888 2.7079 -1.2299
v  -1.8536 0.0000 -4.0263
v  -1.8536 2.7079 -4.0263
v  -3.4761 0.0000 -6.2481
v  -3.4761 2.7079 -6.2481
v  -9.4026 0.0000 -5.4471
v  -8.7841 3.0107 -4.8960
v  -12.3801 0.0000 -3.1345
v  -11.7336 3.0107 -3.0095
v  -11.0213 0.0000 -0.6321
v  -10.2993 3.0107 -0.6400
# 42 vertices

vn -0.5267 0.6791 0.5113
vn -0.1308 0.7202 0.6813
vn 0.0000 1.0000 -0.0000
vn -0.7212 0.6827 -0.1172
vn 0.1905 0.7457 0.6385
vn -0.0000 1.0000 -0.0000
vn 0.3874 0.7837 0.4855
vn 0.4840 0.7824 0.3920
vn -0.0000 1.0000 0.0000
vn 1.0000 0.0000 -0.0000
vn 0.7534 0.6450 -0.1279
vn 0.5418 0.7813 0.3100
vn -0.7171 0.6621 -0.2176
vn 0.1256 0.7538 -0.6450
vn -0.1751 0.7695 -0.6141
vn 0.3955 0.7850 -0.4768
vn -0.9882 0.1346 0.0736
vn -0.6922 0.0997 0.7148
vn -0.6985 0.1201 0.7055
vn -0.9872 0.1594 -0.0074
vn -0.2402 0.1346 0.9614
vn -0.3053 0.1412 0.9417
vn 0.2414 0.0000 0.9704
vn 0.1716 0.1242 0.9773
vn 0.6182 0.0000 0.7860
vn 0.6133 0.1431 0.7768
vn 0.8282 -0.0000 0.5604
vn 0.8203 0.1460 0.5530
vn 0.9562 -0.0000 0.2927
vn 0.9486 0.1265 0.2901
vn 0.9688 0.0000 -0.2479
vn 0.9653 0.0720 -0.2509
vn 0.7941 0.0000 -0.6078
vn 0.7883 0.1235 -0.6028
vn 0.3921 0.0000 -0.9199
vn 0.3487 0.1747 -0.9208
vn -0.3914 0.2429 -0.8876
vn -0.3803 0.2525 -0.8897
vn -0.9564 0.2136 -0.1991
vn -0.9469 0.2350 -0.2194
vn -0.9699 0.2328 0.0715
vn -0.9646 0.2608 0.0394
vn -0.8734 -0.4870 0.0041
# 43 vertex normals

vt 0.0000 0.0000 0.0000
vt 0.3333 0.0000 0.0000
vt 0.3333 0.3333 0.0000
vt 0.0000 0.3333 0.0000
vt 0.6667 0.0000 0.0000
vt 0.6667 0.3333 0.0000
vt 1.0000 0.0000 0.0000
vt 1.0000 0.3333 0.0000
vt 0.3333 0.6667 0.0000
vt 0.0824 0.5390 0.0000
vt 0.6667 0.6667 0.0000
vt 1.0000 0.6667 0.0000
vt 0.0000 0.6667 0.0000
vt 0.3333 1.0000 0.0000
vt 0.0000 1.0000 0.0000
vt 0.6667 1.0000 0.0000
# 16 texture coords

o Rock4
g Rock4
f 1/1/1 2/2/2 3/3/3 4/4/4 
f 2/2/2 5/5/5 6/6/6 3/3/3 
f 7/7/7 8/8/8 6/6/6 5/5/5 
f 3/3/3 9/9/9 10/10/10 
f 3/3/3 6/6/6 11/11/11 9/9/9 
f 8/8/8 12/12/12 11/11/11 6/6/6 
f 13/13/13 9/9/9 14/14/14 15/15/15 
f 9/9/9 11/11/11 16/16/16 14/14/14 
f 17/4/17 18/1/18 19/1/19 20/4/20 
f 18/1/18 21/2/21 22/2/22 19/1/19 
f 21/2/21 23/5/23 24/5/24 22/2/22 
f 23/5/23 25/7/25 26/7/26 24/5/24 
f 25/7/25 27/8/27 28/8/28 26/7/26 
f 27/8/27 29/12/29 30/12/30 28/8/28 
f 29/12/29 31/11/31 32/11/32 30/12/30 
f 31/11/31 33/16/33 34/16/34 32/11/32 
f 33/16/33 35/14/35 36/14/36 34/16/34 
f 35/14/35 37/15/37 38/15/38 36/14/36 
f 37/15/37 39/13/39 40/13/40 38/15/38 
f 39/13/39 41/13/41 42/13/42 40/13/40 
f 41/13/41 17/4/17 20/4/20 42/13/42 
f 20/4/20 19/1/19 1/1/1 4/4/4 
f 19/1/19 22/2/22 2/2/2 1/1/1 
f 22/2/22 24/5/24 5/5/5 2/2/2 
f 24/5/24 26/7/26 7/7/7 5/5/5 
f 26/7/26 28/8/28 8/8/8 7/7/7 
f 28/8/28 30/12/30 12/12/12 8/8/8 
f 30/12/30 32/11/32 11/11/11 12/12/12 
f 32/11/32 34/16/34 16/16/16 11/11/11 
f 34/16/34 36/14/36 14/14/14 16/16/16 
f 36/14/36 38/15/38 15/15/15 14/14/14 
f 38/15/38 40/13/40 13/13/13 15/15/15 
f 40/13/40 42/13/42 10/13/43 13/13/13 
f 42/13/42 20/4/20 4/4/4 10/13/43 
f 3/3/3 10/10/10 9/9/9 13/13/13 10/13/43 4/4/4 
# 34 polygons - 1 triangles

