# Blender v2.78 (sub 0) OBJ File: 'Stone 2.blend'
# www.blender.org
mtllib Stone 2.mtl
o Rock2
v -10.870700 9.110899 5.023401
v -6.713500 9.110899 6.815001
v -5.589600 9.110900 2.761401
v -11.817300 9.110900 2.402301
v -4.192900 9.110899 6.784202
v -2.060600 9.110899 4.212101
v -1.316400 9.110899 5.210402
v 0.169700 9.110899 3.743501
v -3.327800 9.110900 -1.788399
v -10.384200 9.110900 -1.306099
v 1.141200 9.110900 -1.166899
v 1.332400 9.110900 1.892301
v -1.202500 9.110901 -5.743099
v -7.512100 9.110901 -5.736399
v 1.269100 9.110901 -3.823899
v -12.055200 9.110900 0.139901
v -13.450500 -0.501700 2.798800
v -11.864000 -0.501701 5.749600
v -11.588900 3.211999 5.498100
v -12.954700 3.211999 2.662900
v -6.779900 -0.501701 8.259100
v -6.858100 3.211999 7.719700
v -3.590000 -0.501701 8.403200
v -3.590000 2.838398 8.403200
v 0.090300 -0.501701 6.489400
v 0.090300 2.838399 6.489400
v 1.887900 -0.501701 4.638000
v 1.887900 2.838399 4.638000
v 2.916800 -0.501700 2.328700
v 2.916800 2.838399 2.328701
v 1.990200 -0.501700 -1.589100
v 1.990200 2.838400 -1.589100
v 2.289000 -0.501699 -5.095900
v 2.289000 2.838401 -5.095900
v 0.287800 -0.501699 -7.836400
v 0.287800 2.838401 -7.836400
v -9.778400 -0.501699 -7.522700
v -9.015400 3.212001 -6.842800
v -12.763800 -0.501700 -1.703500
v -11.966400 3.212000 -1.549399
v -14.694900 -0.501700 0.180100
v -13.804200 3.212000 0.170401
vt 0.6234 0.3591
vt 0.6248 0.3574
vt 0.6271 0.3576
vt 0.3754 0.3715
vt 0.3754 0.3712
vt 0.3759 0.3712
vt 0.3759 0.3715
vt 0.3754 0.3705
vt 0.3759 0.3705
vt 0.3754 0.3700
vt 0.3758 0.3700
vt 0.3754 0.3696
vt 0.3759 0.3696
vt 0.3767 0.3716
vt 0.3767 0.3713
vt 0.3771 0.3713
vt 0.3772 0.3716
vt 0.3767 0.3710
vt 0.3771 0.3710
vt 0.3767 0.3704
vt 0.3772 0.3704
vt 0.3767 0.3700
vt 0.3772 0.3700
vt 0.3768 0.3696
vt 0.3772 0.3696
vt 0.3740 0.3699
vt 0.3740 0.3685
vt 0.3745 0.3686
vt 0.3745 0.3699
vt 0.3741 0.3680
vt 0.3746 0.3681
vt 0.3741 0.3678
vt 0.3746 0.3679
vt 0.3754 0.3718
vt 0.3759 0.3717
vt 0.3766 0.3711
vt 0.3767 0.3714
vt 0.3766 0.3705
vt 0.3767 0.3702
vt 0.3767 0.3699
vt 0.3780 0.3712
vt 0.3780 0.3714
vt 0.3780 0.3710
vt 0.3780 0.3705
vt 0.3780 0.3702
vt 0.3745 0.3701
vt 0.3753 0.3696
vt 0.3754 0.3699
vt 0.3753 0.3687
vt 0.3753 0.3683
vt 0.3754 0.3681
vt 0.3767 0.3715
vt 0.6298 0.3586
vt 0.6316 0.3629
vt 0.6275 0.3642
vt 0.6316 0.3656
vt 0.6290 0.3679
vt 0.6300 0.3687
vt 0.6286 0.3703
vt 0.6230 0.3666
vt 0.6236 0.3714
vt 0.6267 0.3715
vt 0.6190 0.3689
vt 0.6189 0.3622
vt 0.6209 0.3715
vn -0.4465 0.8105 -0.3792
vn -0.6425 0.7128 -0.2813
vn -0.6454 0.7493 0.1483
vn -0.8844 0.1344 0.4470
vn -0.6921 0.0997 0.7149
vn -0.7002 0.1202 0.7038
vn -0.9130 0.1638 0.3736
vn -0.2401 0.1346 0.9614
vn -0.3077 0.1411 0.9410
vn 0.2155 -0.0000 0.9765
vn 0.1459 0.1239 0.9815
vn 0.5971 0.0000 0.8022
vn 0.5931 0.1422 0.7925
vn 0.8282 0.0000 0.5604
vn 0.8203 0.1460 0.5530
vn 0.9956 0.0000 0.0933
vn 0.9877 0.1230 0.0966
vn 0.9973 0.0000 -0.0735
vn 0.9951 0.0698 -0.0705
vn 0.9630 0.0000 -0.2696
vn 0.9537 0.1037 -0.2822
vn 0.4389 0.0000 -0.8985
vn 0.4090 0.1782 -0.8950
vn -0.5337 0.2571 -0.8056
vn -0.5280 0.2700 -0.8052
vn -0.7837 0.1928 -0.5904
vn -0.7688 0.2108 -0.6037
vn -0.9604 0.2299 -0.1577
vn -0.9391 0.2486 -0.2373
vn -0.7689 0.2108 -0.6037
vn -0.5302 0.6805 0.5058
vn -0.6454 0.7493 0.1482
vn -0.1369 0.7187 0.6817
vn 0.1645 0.7516 0.6388
vn -0.1369 0.7187 0.6818
vn 0.3735 0.7766 0.5073
vn 0.4840 0.7824 0.3920
vn 0.3735 0.7767 0.5072
vn 0.6557 0.7366 0.1661
vn 0.6442 0.7648 -0.0061
vn 0.6601 0.6991 -0.2749
vn 0.1903 0.7726 -0.6057
vn -0.3070 0.7141 -0.6292
vn 0.0000 1.0000 0.0000
vn 0.3734 0.7767 0.5073
vn 0.6556 0.7366 0.1661
usemtl 08___Default
s off
f 10/1/1 16/2/2 4/3/3
f 17/4/4 18/5/5 19/6/6 20/7/7
f 18/5/5 21/8/8 22/9/9 19/6/6
f 21/8/8 23/10/10 24/11/11 22/9/9
f 23/10/10 25/12/12 26/13/13 24/11/11
f 25/14/12 27/15/14 28/16/15 26/17/13
f 27/15/14 29/18/16 30/19/17 28/16/15
f 29/18/16 31/20/18 32/21/19 30/19/17
f 31/20/18 33/22/20 34/23/21 32/21/19
f 33/22/20 35/24/22 36/25/23 34/23/21
f 35/26/22 37/27/24 38/28/25 36/29/23
f 37/27/24 39/30/26 40/31/27 38/28/25
f 39/30/26 41/32/28 42/33/29 40/31/30
f 41/34/28 17/4/4 20/7/7 42/35/29
f 20/7/7 19/6/6 1/36/31 4/37/32
f 19/6/6 22/9/9 2/38/33 1/36/31
f 22/9/9 24/11/11 5/39/34 2/38/35
f 24/11/11 26/13/13 7/40/36 5/39/34
f 26/17/13 28/16/15 8/41/37 7/42/38
f 28/16/15 30/19/17 12/43/39 8/41/37
f 30/19/17 32/21/19 11/44/40 12/43/39
f 32/21/19 34/23/21 15/45/41 11/44/40
f 34/46/21 36/29/23 13/47/42 15/48/41
f 36/29/23 38/28/25 14/49/43 13/47/42
f 38/28/25 40/31/30 10/50/1 14/49/43
f 40/31/30 42/33/29 16/51/2 10/50/1
f 42/35/29 20/7/7 4/37/32 16/52/2
s 1
f 1/53/31 2/54/35 3/55/44 4/3/32
f 2/54/35 5/56/34 6/57/44 3/55/44
f 7/58/45 8/59/37 6/57/44 5/56/34
f 4/3/32 3/55/44 9/60/44 10/1/1
f 3/55/44 6/57/44 11/61/40 9/60/44
f 8/59/37 12/62/46 11/61/40 6/57/44
f 10/1/1 9/60/44 13/63/42 14/64/43
f 9/60/44 11/61/40 15/65/41 13/63/42
