# Blender v2.78 (sub 0) OBJ File: 'Stone 1.blend'
# www.blender.org
mtllib Stone 1.mtl
o Rock1
v -15.483200 9.110900 2.421501
v -14.028300 9.110899 5.432302
v -8.580800 9.110899 6.553102
v -8.580800 9.110900 2.690902
v -5.974300 9.110899 6.048801
v -4.479900 9.110899 3.539201
v -3.536700 9.110899 4.259101
v -2.385300 9.110900 2.844702
v -14.588300 9.110900 -1.171299
v -8.580800 9.110900 -1.171299
v -2.573200 9.110900 -1.171299
v -1.437200 9.110900 1.155201
v -13.594800 9.110901 -4.684299
v -9.046100 9.110901 -4.235599
v -4.221200 9.110901 -3.047299
v -15.749000 9.110900 0.015301
v -17.339899 -0.501700 2.752100
v -15.478400 -0.501701 6.604300
v -15.041700 3.211999 6.178200
v -16.754101 3.211999 2.634600
v -8.508500 -0.501701 8.038400
v -8.630000 3.211999 7.497400
v -5.173600 -0.501701 7.393100
v -5.173600 2.838399 7.393100
v -2.054800 -0.501701 5.103300
v -2.054800 2.838399 5.103301
v -0.581700 -0.501701 3.293600
v -0.581700 2.838399 3.293601
v 0.631400 -0.501700 1.131900
v 0.631400 2.838400 1.131900
v -0.822100 -0.501700 -1.844800
v -0.822100 2.838400 -1.844800
v -2.930600 -0.501699 -4.244900
v -2.930600 2.838401 -4.244900
v -9.103800 -0.501699 -5.765400
v -9.103800 2.838401 -5.765399
v -14.923700 -0.501699 -6.339500
v -14.531400 3.212001 -5.728799
v -16.194901 -0.501700 -1.844800
v -15.700800 3.212000 -1.594100
v -17.679899 -0.501700 -0.326500
v -17.066799 3.212000 -0.197399
vt 0.6333 0.3558
vt 0.6369 0.3586
vt 0.6369 0.3662
vt 0.6318 0.3651
vt 0.6355 0.3695
vt 0.6318 0.3708
vt 0.6325 0.3723
vt 0.6303 0.3734
vt 0.6283 0.3560
vt 0.6267 0.3641
vt 0.6250 0.3721
vt 0.6278 0.3742
vt 0.6234 0.3564
vt 0.6227 0.3626
vt 0.6230 0.3694
vt 0.6302 0.3548
vt 0.3778 0.3670
vt 0.3779 0.3659
vt 0.3792 0.3660
vt 0.3791 0.3670
vt 0.3744 0.3716
vt 0.3742 0.3691
vt 0.3755 0.3691
vt 0.3757 0.3713
vt 0.3742 0.3679
vt 0.3753 0.3679
vt 0.3742 0.3668
vt 0.3754 0.3668
vt 0.3743 0.3663
vt 0.3755 0.3663
vt 0.3744 0.3659
vt 0.3756 0.3659
vt 0.3708 0.3717
vt 0.3707 0.3711
vt 0.3718 0.3711
vt 0.3719 0.3718
vt 0.3706 0.3702
vt 0.3718 0.3702
vt 0.3707 0.3679
vt 0.3718 0.3680
vt 0.3708 0.3659
vt 0.3721 0.3661
vt 0.3779 0.3703
vt 0.3779 0.3687
vt 0.3792 0.3686
vt 0.3792 0.3701
vt 0.3778 0.3680
vt 0.3791 0.3679
vt 0.3814 0.3663
vt 0.3812 0.3671
vt 0.3776 0.3689
vt 0.3778 0.3709
vt 0.3776 0.3680
vt 0.3776 0.3672
vt 0.3777 0.3668
vt 0.3778 0.3665
vt 0.3741 0.3706
vt 0.3742 0.3711
vt 0.3740 0.3699
vt 0.3741 0.3682
vt 0.3742 0.3666
vt 0.3813 0.3684
vt 0.3814 0.3697
vt 0.3812 0.3679
vn -0.6391 0.7464 0.1857
vn -0.4325 0.6940 0.5756
vn -0.0034 0.7226 0.6912
vn 0.0000 1.0000 0.0000
vn 0.2636 0.7471 0.6102
vn 0.4388 0.7676 0.4672
vn 0.5152 0.7803 0.3546
vn -0.4913 0.8243 -0.2814
vn 0.5230 0.7760 -0.3525
vn 0.6808 0.7321 0.0224
vn -0.4079 0.6727 -0.6173
vn 0.1090 0.7714 -0.6270
vn 0.3404 0.7399 -0.5802
vn -0.6698 0.7028 -0.2395
vn -0.9493 0.1583 0.2716
vn -0.6110 0.1608 0.7751
vn -0.6071 0.1802 0.7739
vn -0.9446 0.1848 0.2712
vn -0.0018 0.1441 0.9896
vn -0.0787 0.1498 0.9856
vn 0.4007 -0.0000 0.9162
vn 0.3322 0.1136 0.9363
vn 0.6892 -0.0000 0.7245
vn 0.6858 0.1259 0.7168
vn 0.8269 -0.0000 0.5624
vn 0.8208 0.1344 0.5552
vn 0.9996 -0.0000 0.0286
vn 0.9881 0.1516 0.0267
vn 0.8323 0.0000 -0.5543
vn 0.8255 0.1400 -0.5468
vn 0.5191 0.0000 -0.8547
vn 0.5201 0.1288 -0.8444
vn 0.1691 -0.0000 -0.9856
vn 0.1189 0.1143 -0.9863
vn -0.5513 0.1918 -0.8120
vn -0.5930 0.2096 -0.7775
vn -0.8552 0.1473 -0.4968
vn -0.8514 0.1719 -0.4955
vn -0.9340 0.1652 -0.3167
vn -0.9285 0.1902 -0.3189
vn 0.6808 0.7322 0.0224
usemtl 08___Default
s 1
f 1/1/1 2/2/2 3/3/3 4/4/4
f 4/4/4 3/3/3 5/5/5 6/6/4
f 6/6/4 5/5/5 7/7/6 8/8/7
f 9/9/8 1/1/1 4/4/4 10/10/4
f 10/10/4 4/4/4 6/6/4 11/11/9
f 11/11/9 6/6/4 8/8/7 12/12/10
f 13/13/11 9/9/8 10/10/4 14/14/12
f 14/14/12 10/10/4 11/11/9 15/15/13
f 9/9/8 16/16/14 1/1/1
f 17/17/15 18/18/16 19/19/17 20/20/18
f 18/21/16 21/22/19 22/23/20 19/24/17
f 21/22/19 23/25/21 24/26/22 22/23/20
f 23/25/21 25/27/23 26/28/24 24/26/22
f 25/27/23 27/29/25 28/30/26 26/28/24
f 27/29/25 29/31/27 30/32/28 28/30/26
f 29/33/27 31/34/29 32/35/30 30/36/28
f 31/34/29 33/37/31 34/38/32 32/35/30
f 33/37/31 35/39/33 36/40/34 34/38/32
f 35/39/33 37/41/35 38/42/36 36/40/34
f 37/43/35 39/44/37 40/45/38 38/46/36
f 39/44/37 41/47/39 42/48/40 40/45/38
f 41/47/39 17/17/15 20/20/18 42/48/40
f 20/20/18 19/19/17 2/49/2 1/50/1
f 19/24/17 22/23/20 3/51/3 2/52/2
f 22/23/20 24/26/22 5/53/5 3/51/3
f 24/26/22 26/28/24 7/54/6 5/53/5
f 26/28/24 28/30/26 8/55/7 7/54/6
f 28/30/26 30/32/28 12/56/41 8/55/7
f 30/36/28 32/35/30 11/57/9 12/58/41
f 32/35/30 34/38/32 15/59/13 11/57/9
f 34/38/32 36/40/34 14/60/12 15/59/13
f 36/40/34 38/42/36 13/61/11 14/60/12
f 38/46/36 40/45/38 9/62/8 13/63/11
f 40/45/38 42/48/40 16/64/14 9/62/8
f 42/48/40 20/20/18 1/50/1 16/64/14
